{
  "asset": {
    "generator": "Khronos glTF Blender I/O v1.7.33",
    "version": "2.0"
  },
  "scene": 0,
  "scenes": [
    {
      "name": "Scene",
      "nodes": [
        0
      ]
    }
  ],
  "nodes": [
    {
      "mesh": 0,
      "name": "fenceAPillar6"
    }
  ],
  "materials": [
    {
      "name": "fenceAPillar6",
      "pbrMetallicRoughness": {
        "baseColorTexture": {
          "index": 0
        },
        "metallicFactor": 0,
        "roughnessFactor": 0.800000011920929
      }
    }
  ],
  "meshes": [
    {
      "name": "fenceAPillar6",
      "primitives": [
        {
          "attributes": {
            "POSITION": 0,
            "NORMAL": 1,
            "TEXCOORD_0": 2
          },
          "indices": 3,
          "material": 0
        }
      ]
    }
  ],
  "textures": [
    {
      "sampler": 0,
      "source": 0
    }
  ],
  "images": [
    {
      "name": "Graveyard_texture",
      "uri": "fenceAPillar6_image0.png"
    }
  ],
  "accessors": [
    {
      "bufferView": 0,
      "componentType": 5126,
      "count": 147,
      "max": [
        0.25382575392723083,
        1.525985598564148,
        0.40767985582351685
      ],
      "min": [
        -0.25382575392723083,
        -0.067974075675010681,
        -0.40767985582351685
      ],
      "type": "VEC3"
    },
    {
      "bufferView": 1,
      "componentType": 5126,
      "count": 147,
      "type": "VEC3"
    },
    {
      "bufferView": 2,
      "componentType": 5126,
      "count": 147,
      "type": "VEC2"
    },
    {
      "bufferView": 3,
      "componentType": 5123,
      "count": 225,
      "type": "SCALAR"
    }
  ],
  "bufferViews": [
    {
      "buffer": 0,
      "byteLength": 1764,
      "byteOffset": 0
    },
    {
      "buffer": 0,
      "byteLength": 1764,
      "byteOffset": 1764
    },
    {
      "buffer": 0,
      "byteLength": 1176,
      "byteOffset": 3528
    },
    {
      "buffer": 0,
      "byteLength": 450,
      "byteOffset": 4704
    }
  ],
  "samplers": [
    {
      "magFilter": 9729,
      "minFilter": 9987
    }
  ],
  "buffers": [
    {
      "byteLength": 5154,
      "uri": "fenceAPillar6.bin"
    }
  ]
}