{
  "asset": {
    "generator": "Khronos glTF Blender I/O v1.7.33",
    "version": "2.0"
  },
  "scene": 0,
  "scenes": [
    {
      "name": "Scene",
      "nodes": [
        0
      ]
    }
  ],
  "nodes": [
    {
      "mesh": 0,
      "name": "hollowLog"
    }
  ],
  "materials": [
    {
      "doubleSided": true,
      "name": "hollowLog",
      "pbrMetallicRoughness": {
        "baseColorTexture": {
          "index": 0
        },
        "metallicFactor": 0,
        "roughnessFactor": 0.63235294818878174
      }
    }
  ],
  "meshes": [
    {
      "name": "hollowLog",
      "primitives": [
        {
          "attributes": {
            "POSITION": 0,
            "NORMAL": 1,
            "TEXCOORD_0": 2
          },
          "indices": 3,
          "material": 0
        }
      ]
    }
  ],
  "textures": [
    {
      "sampler": 0,
      "source": 0
    }
  ],
  "images": [
    {
      "name": "rocks3",
      "uri": "hollowLog_image0.jpg"
    }
  ],
  "accessors": [
    {
      "bufferView": 0,
      "componentType": 5126,
      "count": 678,
      "max": [
        0.63903051614761353,
        1.4400385618209839,
        2.1313161849975586
      ],
      "min": [
        -0.6664087176322937,
        -0.054984033107757568,
        -1.8597049713134766
      ],
      "type": "VEC3"
    },
    {
      "bufferView": 1,
      "componentType": 5126,
      "count": 678,
      "type": "VEC3"
    },
    {
      "bufferView": 2,
      "componentType": 5126,
      "count": 678,
      "type": "VEC2"
    },
    {
      "bufferView": 3,
      "componentType": 5123,
      "count": 1338,
      "type": "SCALAR"
    }
  ],
  "bufferViews": [
    {
      "buffer": 0,
      "byteLength": 8136,
      "byteOffset": 0
    },
    {
      "buffer": 0,
      "byteLength": 8136,
      "byteOffset": 8136
    },
    {
      "buffer": 0,
      "byteLength": 5424,
      "byteOffset": 16272
    },
    {
      "buffer": 0,
      "byteLength": 2676,
      "byteOffset": 21696
    }
  ],
  "samplers": [
    {
      "magFilter": 9729,
      "minFilter": 9987
    }
  ],
  "buffers": [
    {
      "byteLength": 24372,
      "uri": "hollowLog.bin"
    }
  ]
}