{
  "asset": {
    "generator": "Khronos glTF Blender I/O v1.7.33",
    "version": "2.0"
  },
  "scene": 0,
  "scenes": [
    {
      "name": "Scene",
      "nodes": [
        0
      ]
    }
  ],
  "nodes": [
    {
      "mesh": 0,
      "name": "stumpAxe"
    }
  ],
  "materials": [
    {
      "doubleSided": true,
      "name": "stumpAxe",
      "pbrMetallicRoughness": {
        "baseColorTexture": {
          "index": 0
        },
        "metallicFactor": 0,
        "roughnessFactor": 0.63235294818878174
      }
    }
  ],
  "meshes": [
    {
      "name": "stumpAxe",
      "primitives": [
        {
          "attributes": {
            "POSITION": 0,
            "NORMAL": 1,
            "TEXCOORD_0": 2
          },
          "indices": 3,
          "material": 0
        }
      ]
    }
  ],
  "textures": [
    {
      "sampler": 0,
      "source": 0
    }
  ],
  "images": [
    {
      "name": "rocks3",
      "uri": "stumpAxe_image0.jpg"
    }
  ],
  "accessors": [
    {
      "bufferView": 0,
      "componentType": 5126,
      "count": 977,
      "max": [
        0.62563836574554443,
        1.3044908046722412,
        0.6578441858291626
      ],
      "min": [
        -0.70331823825836182,
        -0.041310619562864304,
        -1.2463417053222656
      ],
      "type": "VEC3"
    },
    {
      "bufferView": 1,
      "componentType": 5126,
      "count": 977,
      "type": "VEC3"
    },
    {
      "bufferView": 2,
      "componentType": 5126,
      "count": 977,
      "type": "VEC2"
    },
    {
      "bufferView": 3,
      "componentType": 5123,
      "count": 1512,
      "type": "SCALAR"
    }
  ],
  "bufferViews": [
    {
      "buffer": 0,
      "byteLength": 11724,
      "byteOffset": 0
    },
    {
      "buffer": 0,
      "byteLength": 11724,
      "byteOffset": 11724
    },
    {
      "buffer": 0,
      "byteLength": 7816,
      "byteOffset": 23448
    },
    {
      "buffer": 0,
      "byteLength": 3024,
      "byteOffset": 31264
    }
  ],
  "samplers": [
    {
      "magFilter": 9729,
      "minFilter": 9987
    }
  ],
  "buffers": [
    {
      "byteLength": 34288,
      "uri": "stumpAxe.bin"
    }
  ]
}