{
  "asset": {
    "generator": "Khronos glTF Blender I/O v1.7.33",
    "version": "2.0"
  },
  "scene": 0,
  "scenes": [
    {
      "name": "Scene",
      "nodes": [
        0
      ]
    }
  ],
  "nodes": [
    {
      "mesh": 0,
      "name": "mausoleumSmall"
    }
  ],
  "materials": [
    {
      "name": "mausoleumSmall",
      "pbrMetallicRoughness": {
        "baseColorTexture": {
          "index": 0
        },
        "metallicFactor": 0,
        "roughnessFactor": 0.800000011920929
      }
    }
  ],
  "meshes": [
    {
      "name": "mausoleumSmall",
      "primitives": [
        {
          "attributes": {
            "POSITION": 0,
            "NORMAL": 1,
            "TEXCOORD_0": 2
          },
          "indices": 3,
          "material": 0
        }
      ]
    }
  ],
  "textures": [
    {
      "sampler": 0,
      "source": 0
    }
  ],
  "images": [
    {
      "name": "Graveyard_texture",
      "uri": "mausoleumSmall_image0.png"
    }
  ],
  "accessors": [
    {
      "bufferView": 0,
      "componentType": 5126,
      "count": 2069,
      "max": [
        1.8332021236419678,
        3.717857837677002,
        2.4856953620910645
      ],
      "min": [
        -1.8332020044326782,
        -0.43608930706977844,
        -2.335097074508667
      ],
      "type": "VEC3"
    },
    {
      "bufferView": 1,
      "componentType": 5126,
      "count": 2069,
      "type": "VEC3"
    },
    {
      "bufferView": 2,
      "componentType": 5126,
      "count": 2069,
      "type": "VEC2"
    },
    {
      "bufferView": 3,
      "componentType": 5123,
      "count": 3249,
      "type": "SCALAR"
    }
  ],
  "bufferViews": [
    {
      "buffer": 0,
      "byteLength": 24828,
      "byteOffset": 0
    },
    {
      "buffer": 0,
      "byteLength": 24828,
      "byteOffset": 24828
    },
    {
      "buffer": 0,
      "byteLength": 16552,
      "byteOffset": 49656
    },
    {
      "buffer": 0,
      "byteLength": 6498,
      "byteOffset": 66208
    }
  ],
  "samplers": [
    {
      "magFilter": 9729,
      "minFilter": 9987
    }
  ],
  "buffers": [
    {
      "byteLength": 72706,
      "uri": "mausoleumSmall.bin"
    }
  ]
}