{
  "asset": {
    "generator": "Khronos glTF Blender I/O v1.7.33",
    "version": "2.0"
  },
  "scene": 0,
  "scenes": [
    {
      "name": "Scene",
      "nodes": [
        0
      ]
    }
  ],
  "nodes": [
    {
      "mesh": 0,
      "name": "wagon"
    }
  ],
  "materials": [
    {
      "doubleSided": true,
      "name": "wagon",
      "pbrMetallicRoughness": {
        "baseColorTexture": {
          "index": 0
        },
        "metallicRoughnessTexture": {
          "index": 1
        }
      }
    }
  ],
  "meshes": [
    {
      "name": "wagon",
      "primitives": [
        {
          "attributes": {
            "POSITION": 0,
            "NORMAL": 1,
            "TEXCOORD_0": 2
          },
          "indices": 3,
          "material": 0
        }
      ]
    }
  ],
  "textures": [
    {
      "sampler": 0,
      "source": 0
    },
    {
      "sampler": 0,
      "source": 1
    }
  ],
  "images": [
    {
      "name": "wagonBaseColor",
      "uri": "wagon_image0.png"
    },
    {
      "name": "wagonORM",
      "uri": "wagon_image1.png"
    }
  ],
  "accessors": [
    {
      "bufferView": 0,
      "componentType": 5126,
      "count": 3729,
      "max": [
        1.0968495607376099,
        1.8043806552886963,
        0.91277480125427246
      ],
      "min": [
        -3.00870943069458,
        0.00044611151679418981,
        -0.91391342878341675
      ],
      "type": "VEC3"
    },
    {
      "bufferView": 1,
      "componentType": 5126,
      "count": 3729,
      "type": "VEC3"
    },
    {
      "bufferView": 2,
      "componentType": 5126,
      "count": 3729,
      "type": "VEC2"
    },
    {
      "bufferView": 3,
      "componentType": 5123,
      "count": 8700,
      "type": "SCALAR"
    }
  ],
  "bufferViews": [
    {
      "buffer": 0,
      "byteLength": 44748,
      "byteOffset": 0
    },
    {
      "buffer": 0,
      "byteLength": 44748,
      "byteOffset": 44748
    },
    {
      "buffer": 0,
      "byteLength": 29832,
      "byteOffset": 89496
    },
    {
      "buffer": 0,
      "byteLength": 17400,
      "byteOffset": 119328
    }
  ],
  "samplers": [
    {
      "magFilter": 9729,
      "minFilter": 9987
    }
  ],
  "buffers": [
    {
      "byteLength": 136728,
      "uri": "wagon.bin"
    }
  ]
}