{
  "asset": {
    "generator": "Khronos glTF Blender I/O v1.7.33",
    "version": "2.0"
  },
  "scene": 0,
  "scenes": [
    {
      "name": "Scene",
      "nodes": [
        0
      ]
    }
  ],
  "nodes": [
    {
      "mesh": 0,
      "name": "lightPost3"
    }
  ],
  "materials": [
    {
      "doubleSided": true,
      "name": "lightPost3",
      "normalTexture": {
        "index": 0
      },
      "pbrMetallicRoughness": {
        "baseColorTexture": {
          "index": 1
        },
        "metallicRoughnessTexture": {
          "index": 2
        },
        "roughnessFactor": 0.5
      }
    }
  ],
  "meshes": [
    {
      "name": "lightPost3",
      "primitives": [
        {
          "attributes": {
            "POSITION": 0,
            "NORMAL": 1,
            "TEXCOORD_0": 2
          },
          "indices": 3,
          "material": 0
        }
      ]
    }
  ],
  "textures": [
    {
      "sampler": 0,
      "source": 0
    },
    {
      "sampler": 0,
      "source": 1
    },
    {
      "sampler": 0,
      "source": 2
    }
  ],
  "images": [
    {
      "name": "normal",
      "uri": "lightPost3_image0.png"
    },
    {
      "name": "baseColor",
      "uri": "lightPost3_image1.png"
    },
    {
      "name": "orm",
      "uri": "lightPost3_image2.png"
    }
  ],
  "accessors": [
    {
      "bufferView": 0,
      "componentType": 5126,
      "count": 2932,
      "max": [
        1.2127400636672974,
        3.7463581562042236,
        0.26932507753372192
      ],
      "min": [
        -1.1920319795608521,
        -0.021125389263033867,
        -0.26590409874916077
      ],
      "type": "VEC3"
    },
    {
      "bufferView": 1,
      "componentType": 5126,
      "count": 2932,
      "type": "VEC3"
    },
    {
      "bufferView": 2,
      "componentType": 5126,
      "count": 2932,
      "type": "VEC2"
    },
    {
      "bufferView": 3,
      "componentType": 5123,
      "count": 4224,
      "type": "SCALAR"
    }
  ],
  "bufferViews": [
    {
      "buffer": 0,
      "byteLength": 35184,
      "byteOffset": 0
    },
    {
      "buffer": 0,
      "byteLength": 35184,
      "byteOffset": 35184
    },
    {
      "buffer": 0,
      "byteLength": 23456,
      "byteOffset": 70368
    },
    {
      "buffer": 0,
      "byteLength": 8448,
      "byteOffset": 93824
    }
  ],
  "samplers": [
    {
      "magFilter": 9729,
      "minFilter": 9987
    }
  ],
  "buffers": [
    {
      "byteLength": 102272,
      "uri": "lightPost3.bin"
    }
  ]
}