{
  "asset": {
    "generator": "Khronos glTF Blender I/O v1.7.33",
    "version": "2.0"
  },
  "scene": 0,
  "scenes": [
    {
      "name": "Scene",
      "nodes": [
        0
      ]
    }
  ],
  "nodes": [
    {
      "mesh": 0,
      "name": "sarcophagusOpen"
    }
  ],
  "materials": [
    {
      "name": "sarcophagusOpen",
      "pbrMetallicRoughness": {
        "baseColorTexture": {
          "index": 0
        },
        "metallicFactor": 0,
        "roughnessFactor": 0.800000011920929
      }
    }
  ],
  "meshes": [
    {
      "name": "sarcophagusOpen",
      "primitives": [
        {
          "attributes": {
            "POSITION": 0,
            "NORMAL": 1,
            "TEXCOORD_0": 2
          },
          "indices": 3,
          "material": 0
        }
      ]
    }
  ],
  "textures": [
    {
      "sampler": 0,
      "source": 0
    }
  ],
  "images": [
    {
      "name": "Graveyard_texture",
      "uri": "sarcophagusOpen_image0.png"
    }
  ],
  "accessors": [
    {
      "bufferView": 0,
      "componentType": 5126,
      "count": 446,
      "max": [
        0.48706525564193726,
        0.6923099160194397,
        0.85194498300552368
      ],
      "min": [
        -0.79263496398925781,
        -0.068532630801200867,
        -0.87627130746841431
      ],
      "type": "VEC3"
    },
    {
      "bufferView": 1,
      "componentType": 5126,
      "count": 446,
      "type": "VEC3"
    },
    {
      "bufferView": 2,
      "componentType": 5126,
      "count": 446,
      "type": "VEC2"
    },
    {
      "bufferView": 3,
      "componentType": 5123,
      "count": 648,
      "type": "SCALAR"
    }
  ],
  "bufferViews": [
    {
      "buffer": 0,
      "byteLength": 5352,
      "byteOffset": 0
    },
    {
      "buffer": 0,
      "byteLength": 5352,
      "byteOffset": 5352
    },
    {
      "buffer": 0,
      "byteLength": 3568,
      "byteOffset": 10704
    },
    {
      "buffer": 0,
      "byteLength": 1296,
      "byteOffset": 14272
    }
  ],
  "samplers": [
    {
      "magFilter": 9729,
      "minFilter": 9987
    }
  ],
  "buffers": [
    {
      "byteLength": 15568,
      "uri": "sarcophagusOpen.bin"
    }
  ]
}