{
  "asset": {
    "generator": "Khronos glTF Blender I/O v1.7.33",
    "version": "2.0"
  },
  "scene": 0,
  "scenes": [
    {
      "name": "Scene",
      "nodes": [
        0
      ]
    }
  ],
  "nodes": [
    {
      "mesh": 0,
      "name": "fenceAPillar8"
    }
  ],
  "materials": [
    {
      "name": "fenceAPillar8",
      "pbrMetallicRoughness": {
        "baseColorTexture": {
          "index": 0
        },
        "metallicFactor": 0,
        "roughnessFactor": 0.800000011920929
      }
    }
  ],
  "meshes": [
    {
      "name": "fenceAPillar8",
      "primitives": [
        {
          "attributes": {
            "POSITION": 0,
            "NORMAL": 1,
            "TEXCOORD_0": 2
          },
          "indices": 3,
          "material": 0
        }
      ]
    }
  ],
  "textures": [
    {
      "sampler": 0,
      "source": 0
    }
  ],
  "images": [
    {
      "name": "Graveyard_texture",
      "uri": "fenceAPillar8_image0.png"
    }
  ],
  "accessors": [
    {
      "bufferView": 0,
      "componentType": 5126,
      "count": 154,
      "max": [
        0.56725037097930908,
        0.61093825101852417,
        0.52354961633682251
      ],
      "min": [
        -0.47424113750457764,
        -0.18644429743289948,
        -0.47275102138519287
      ],
      "type": "VEC3"
    },
    {
      "bufferView": 1,
      "componentType": 5126,
      "count": 154,
      "type": "VEC3"
    },
    {
      "bufferView": 2,
      "componentType": 5126,
      "count": 154,
      "type": "VEC2"
    },
    {
      "bufferView": 3,
      "componentType": 5123,
      "count": 204,
      "type": "SCALAR"
    }
  ],
  "bufferViews": [
    {
      "buffer": 0,
      "byteLength": 1848,
      "byteOffset": 0
    },
    {
      "buffer": 0,
      "byteLength": 1848,
      "byteOffset": 1848
    },
    {
      "buffer": 0,
      "byteLength": 1232,
      "byteOffset": 3696
    },
    {
      "buffer": 0,
      "byteLength": 408,
      "byteOffset": 4928
    }
  ],
  "samplers": [
    {
      "magFilter": 9729,
      "minFilter": 9987
    }
  ],
  "buffers": [
    {
      "byteLength": 5336,
      "uri": "fenceAPillar8.bin"
    }
  ]
}