{
    "asset" : {
        "generator" : "Khronos Blender glTF 2.0 I/O",
        "version" : "2.0"
    },
    "scene" : 0,
    "scenes" : [
        {
            "name" : "Scene",
            "nodes" : [
                0,
                1,
                2,
                3,
                4,
                5
            ]
        }
    ],
    "nodes" : [
        {
            "mesh" : 0,
            "name" : "marble",
            "rotation" : [
                0.7071068286895752,
                0,
                0,
                0.7071067094802856
            ],
            "scale" : [
                0.03999999910593033,
                0.03999999910593033,
                0.03999999910593033
            ]
        },
        {
            "mesh" : 1,
            "name" : "blueMatPlane",
            "rotation" : [
                0.7071068286895752,
                0,
                0,
                0.7071067094802856
            ],
            "scale" : [
                0.009999999776482582,
                0.009999999776482582,
                0.009999999776482582
            ]
        },
        {
            "mesh" : 2,
            "name" : "redMatPlane",
            "rotation" : [
                0.7071068286895752,
                0,
                0,
                0.7071067094802856
            ],
            "scale" : [
                0.009999999776482582,
                0.009999999776482582,
                0.009999999776482582
            ]
        },
        {
            "mesh" : 3,
            "name" : "greenMatPlane",
            "rotation" : [
                0.7071068286895752,
                0,
                0,
                0.7071067094802856
            ],
            "scale" : [
                0.009999999776482582,
                0.009999999776482582,
                0.009999999776482582
            ]
        },
        {
            "mesh" : 4,
            "name" : "yellowMatPlane",
            "rotation" : [
                0.7071068286895752,
                0,
                0,
                0.7071067094802856
            ],
            "scale" : [
                0.009999999776482582,
                0.009999999776482582,
                0.009999999776482582
            ]
        },
        {
            "mesh" : 5,
            "name" : "purpleMatPlane",
            "rotation" : [
                0.7071068286895752,
                0,
                0,
                0.7071067094802856
            ],
            "scale" : [
                0.009999999776482582,
                0.009999999776482582,
                0.009999999776482582
            ]
        }
    ],
    "materials" : [
        {
            "name" : "blueMat",
            "pbrMetallicRoughness" : {
                "baseColorTexture" : {
                    "index" : 0,
                    "texCoord" : 0
                },
                "metallicFactor" : 0,
                "roughnessFactor" : 0.10000000149011612
            }
        },
        {
            "name" : "redMat",
            "pbrMetallicRoughness" : {
                "baseColorTexture" : {
                    "index" : 1,
                    "texCoord" : 0
                },
                "metallicFactor" : 0,
                "roughnessFactor" : 0.10000000149011612
            }
        },
        {
            "name" : "greenMat",
            "pbrMetallicRoughness" : {
                "baseColorTexture" : {
                    "index" : 2,
                    "texCoord" : 0
                },
                "metallicFactor" : 0,
                "roughnessFactor" : 0.10000000149011612
            }
        },
        {
            "name" : "yellowMat",
            "pbrMetallicRoughness" : {
                "baseColorTexture" : {
                    "index" : 3,
                    "texCoord" : 0
                },
                "metallicFactor" : 0,
                "roughnessFactor" : 0.10000000149011612
            }
        },
        {
            "name" : "purpleMat",
            "pbrMetallicRoughness" : {
                "baseColorTexture" : {
                    "index" : 4,
                    "texCoord" : 0
                },
                "metallicFactor" : 0,
                "roughnessFactor" : 0.10000000149011612
            }
        }
    ],
    "meshes" : [
        {
            "name" : "Untitled",
            "primitives" : [
                {
                    "attributes" : {
                        "POSITION" : 0,
                        "NORMAL" : 1,
                        "TANGENT" : 2,
                        "TEXCOORD_0" : 3
                    },
                    "indices" : 4,
                    "material" : 0
                }
            ]
        },
        {
            "name" : "Untitled.001",
            "primitives" : [
                {
                    "attributes" : {
                        "POSITION" : 5,
                        "NORMAL" : 6,
                        "TANGENT" : 7,
                        "TEXCOORD_0" : 8
                    },
                    "indices" : 9,
                    "material" : 0
                }
            ]
        },
        {
            "name" : "Untitled.002",
            "primitives" : [
                {
                    "attributes" : {
                        "POSITION" : 10,
                        "NORMAL" : 11,
                        "TANGENT" : 12,
                        "TEXCOORD_0" : 13
                    },
                    "indices" : 14,
                    "material" : 1
                }
            ]
        },
        {
            "name" : "Untitled.003",
            "primitives" : [
                {
                    "attributes" : {
                        "POSITION" : 15,
                        "NORMAL" : 16,
                        "TANGENT" : 17,
                        "TEXCOORD_0" : 18
                    },
                    "indices" : 19,
                    "material" : 2
                }
            ]
        },
        {
            "name" : "Untitled.004",
            "primitives" : [
                {
                    "attributes" : {
                        "POSITION" : 20,
                        "NORMAL" : 21,
                        "TANGENT" : 22,
                        "TEXCOORD_0" : 23
                    },
                    "indices" : 24,
                    "material" : 3
                }
            ]
        },
        {
            "name" : "Untitled.005",
            "primitives" : [
                {
                    "attributes" : {
                        "POSITION" : 25,
                        "NORMAL" : 26,
                        "TANGENT" : 27,
                        "TEXCOORD_0" : 28
                    },
                    "indices" : 29,
                    "material" : 4
                }
            ]
        }
    ],
    "textures" : [
        {
            "source" : 0
        },
        {
            "source" : 1
        },
        {
            "source" : 2
        },
        {
            "source" : 3
        },
        {
            "source" : 4
        }
    ],
    "images" : [
        {
            "mimeType" : "image/jpg",
            "name" : "blueMarbleTexture",
            "uri" : "blueMarbleTexture.jpg"
        },
        {
            "mimeType" : "image/jpg",
            "name" : "redMarbleTexture",
            "uri" : "redMarbleTexture.jpg"
        },
        {
            "mimeType" : "image/jpg",
            "name" : "greenMarbleTexture",
            "uri" : "greenMarbleTexture.jpg"
        },
        {
            "mimeType" : "image/jpg",
            "name" : "redMarbleTexture",
            "uri" : "redMarbleTexture.jpg"
        },
        {
            "mimeType" : "image/jpg",
            "name" : "purpleMarbleTexture",
            "uri" : "purpleMarbleTexture.jpg"
        }
    ],
    "accessors" : [
        {
            "bufferView" : 0,
            "componentType" : 5126,
            "count" : 486,
            "max" : [
                9.362834930419922,
                9.362834930419922,
                9.362834930419922
            ],
            "min" : [
                -9.362834930419922,
                -9.362834930419922,
                -9.362834930419922
            ],
            "type" : "VEC3"
        },
        {
            "bufferView" : 1,
            "componentType" : 5126,
            "count" : 486,
            "type" : "VEC3"
        },
        {
            "bufferView" : 2,
            "componentType" : 5126,
            "count" : 486,
            "type" : "VEC4"
        },
        {
            "bufferView" : 3,
            "componentType" : 5126,
            "count" : 486,
            "type" : "VEC2"
        },
        {
            "bufferView" : 4,
            "componentType" : 5123,
            "count" : 2304,
            "type" : "SCALAR"
        },
        {
            "bufferView" : 5,
            "componentType" : 5126,
            "count" : 4,
            "max" : [
                0.5,
                0.5,
                0
            ],
            "min" : [
                -0.5,
                -0.5,
                0
            ],
            "type" : "VEC3"
        },
        {
            "bufferView" : 6,
            "componentType" : 5126,
            "count" : 4,
            "type" : "VEC3"
        },
        {
            "bufferView" : 7,
            "componentType" : 5126,
            "count" : 4,
            "type" : "VEC4"
        },
        {
            "bufferView" : 8,
            "componentType" : 5126,
            "count" : 4,
            "type" : "VEC2"
        },
        {
            "bufferView" : 9,
            "componentType" : 5123,
            "count" : 6,
            "type" : "SCALAR"
        },
        {
            "bufferView" : 10,
            "componentType" : 5126,
            "count" : 4,
            "max" : [
                0.5,
                0.5,
                0
            ],
            "min" : [
                -0.5,
                -0.5,
                0
            ],
            "type" : "VEC3"
        },
        {
            "bufferView" : 11,
            "componentType" : 5126,
            "count" : 4,
            "type" : "VEC3"
        },
        {
            "bufferView" : 12,
            "componentType" : 5126,
            "count" : 4,
            "type" : "VEC4"
        },
        {
            "bufferView" : 13,
            "componentType" : 5126,
            "count" : 4,
            "type" : "VEC2"
        },
        {
            "bufferView" : 14,
            "componentType" : 5123,
            "count" : 6,
            "type" : "SCALAR"
        },
        {
            "bufferView" : 15,
            "componentType" : 5126,
            "count" : 4,
            "max" : [
                0.5,
                0.5,
                0
            ],
            "min" : [
                -0.5,
                -0.5,
                0
            ],
            "type" : "VEC3"
        },
        {
            "bufferView" : 16,
            "componentType" : 5126,
            "count" : 4,
            "type" : "VEC3"
        },
        {
            "bufferView" : 17,
            "componentType" : 5126,
            "count" : 4,
            "type" : "VEC4"
        },
        {
            "bufferView" : 18,
            "componentType" : 5126,
            "count" : 4,
            "type" : "VEC2"
        },
        {
            "bufferView" : 19,
            "componentType" : 5123,
            "count" : 6,
            "type" : "SCALAR"
        },
        {
            "bufferView" : 20,
            "componentType" : 5126,
            "count" : 4,
            "max" : [
                0.5,
                0.5,
                0
            ],
            "min" : [
                -0.5,
                -0.5,
                0
            ],
            "type" : "VEC3"
        },
        {
            "bufferView" : 21,
            "componentType" : 5126,
            "count" : 4,
            "type" : "VEC3"
        },
        {
            "bufferView" : 22,
            "componentType" : 5126,
            "count" : 4,
            "type" : "VEC4"
        },
        {
            "bufferView" : 23,
            "componentType" : 5126,
            "count" : 4,
            "type" : "VEC2"
        },
        {
            "bufferView" : 24,
            "componentType" : 5123,
            "count" : 6,
            "type" : "SCALAR"
        },
        {
            "bufferView" : 25,
            "componentType" : 5126,
            "count" : 4,
            "max" : [
                0.5,
                0.5,
                0
            ],
            "min" : [
                -0.5,
                -0.5,
                0
            ],
            "type" : "VEC3"
        },
        {
            "bufferView" : 26,
            "componentType" : 5126,
            "count" : 4,
            "type" : "VEC3"
        },
        {
            "bufferView" : 27,
            "componentType" : 5126,
            "count" : 4,
            "type" : "VEC4"
        },
        {
            "bufferView" : 28,
            "componentType" : 5126,
            "count" : 4,
            "type" : "VEC2"
        },
        {
            "bufferView" : 29,
            "componentType" : 5123,
            "count" : 6,
            "type" : "SCALAR"
        }
    ],
    "bufferViews" : [
        {
            "buffer" : 0,
            "byteLength" : 5832,
            "byteOffset" : 0
        },
        {
            "buffer" : 0,
            "byteLength" : 5832,
            "byteOffset" : 5832
        },
        {
            "buffer" : 0,
            "byteLength" : 7776,
            "byteOffset" : 11664
        },
        {
            "buffer" : 0,
            "byteLength" : 3888,
            "byteOffset" : 19440
        },
        {
            "buffer" : 0,
            "byteLength" : 4608,
            "byteOffset" : 23328
        },
        {
            "buffer" : 0,
            "byteLength" : 48,
            "byteOffset" : 27936
        },
        {
            "buffer" : 0,
            "byteLength" : 48,
            "byteOffset" : 27984
        },
        {
            "buffer" : 0,
            "byteLength" : 64,
            "byteOffset" : 28032
        },
        {
            "buffer" : 0,
            "byteLength" : 32,
            "byteOffset" : 28096
        },
        {
            "buffer" : 0,
            "byteLength" : 12,
            "byteOffset" : 28128
        },
        {
            "buffer" : 0,
            "byteLength" : 48,
            "byteOffset" : 28140
        },
        {
            "buffer" : 0,
            "byteLength" : 48,
            "byteOffset" : 28188
        },
        {
            "buffer" : 0,
            "byteLength" : 64,
            "byteOffset" : 28236
        },
        {
            "buffer" : 0,
            "byteLength" : 32,
            "byteOffset" : 28300
        },
        {
            "buffer" : 0,
            "byteLength" : 12,
            "byteOffset" : 28332
        },
        {
            "buffer" : 0,
            "byteLength" : 48,
            "byteOffset" : 28344
        },
        {
            "buffer" : 0,
            "byteLength" : 48,
            "byteOffset" : 28392
        },
        {
            "buffer" : 0,
            "byteLength" : 64,
            "byteOffset" : 28440
        },
        {
            "buffer" : 0,
            "byteLength" : 32,
            "byteOffset" : 28504
        },
        {
            "buffer" : 0,
            "byteLength" : 12,
            "byteOffset" : 28536
        },
        {
            "buffer" : 0,
            "byteLength" : 48,
            "byteOffset" : 28548
        },
        {
            "buffer" : 0,
            "byteLength" : 48,
            "byteOffset" : 28596
        },
        {
            "buffer" : 0,
            "byteLength" : 64,
            "byteOffset" : 28644
        },
        {
            "buffer" : 0,
            "byteLength" : 32,
            "byteOffset" : 28708
        },
        {
            "buffer" : 0,
            "byteLength" : 12,
            "byteOffset" : 28740
        },
        {
            "buffer" : 0,
            "byteLength" : 48,
            "byteOffset" : 28752
        },
        {
            "buffer" : 0,
            "byteLength" : 48,
            "byteOffset" : 28800
        },
        {
            "buffer" : 0,
            "byteLength" : 64,
            "byteOffset" : 28848
        },
        {
            "buffer" : 0,
            "byteLength" : 32,
            "byteOffset" : 28912
        },
        {
            "buffer" : 0,
            "byteLength" : 12,
            "byteOffset" : 28944
        }
    ],
    "buffers" : [
        {
            "byteLength" : 28956,
            "uri" : "marble.bin"
        }
    ]
}
