{
  "accessors": [
    {
      "bufferView": 0,
      "componentType": 5126,
      "count": 4,
      "type": "VEC3",
      "max": [
        0.5,
        0.5,
        0.0
      ],
      "min": [
        -0.5,
        -0.5,
        0.0
      ]
    },
    {
      "bufferView": 1,
      "componentType": 5125,
      "count": 6,
      "type": "SCALAR"
    }
  ],
  "asset": {
    "version": "2.0"
  },
  "buffers": [
    {
      "uri": "TwoQuads.bin",
      "byteLength": 72
    }
  ],
  "bufferViews": [
    {
      "buffer": 0,
      "byteLength": 48
    },
    {
      "buffer": 0,
      "byteOffset": 48,
      "byteLength": 24
    }
  ],
  "materials": [
    {
      "pbrMetallicRoughness": {
        "metallicFactor": 0
      }
    }
  ],
  "meshes": [
    {
      "primitives": [
        {
          "attributes": {
            "POSITION": 0
          },
          "indices": 1,
          "material": 0
        }
      ]
    }
  ],
  "nodes": [
    {
      "name": "node0",
      "mesh": 0,
      "translation": [
        -0.55,
        0,
        0
      ]
    },
    {
      "name": "node1",
      "mesh": 0,
      "translation": [
        0.55,
        0,
        0
      ]
    }
  ],
  "scene": 0,
  "scenes": [
    {
      "nodes": [
        0,
        1
      ]
    }
  ]
}