{"asset":{"version":"2.0","generator":"babylon.js glTF exporter for Maya 2018 v20200228.3"},"scene":0,"scenes":[{"nodes":[0,1,2,14,26,32],"extensions":{}}],"nodes":[{"mesh":0,"name":"TableSurfaceMesh"},{"mesh":1,"name":"Studio"},{"children":[3,12,13],"translation":[0.0,-0.00647752,0.0],"name":"light1_group"},{"children":[4],"mesh":2,"name":"lightStand1_tube1_mesh"},{"children":[5],"mesh":3,"name":"lightStand1_tube2_mesh"},{"children":[6,10,11],"name":"light1_rotationAlpha"},{"children":[7,8,9],"name":"light1_rotationBeta"},{"mesh":4,"name":"flashHead1_mesh"},{"mesh":5,"name":"umbrellaRod1_mesh"},{"mesh":6,"name":"umbrellaReflector1_mesh"},{"mesh":7,"translation":[1.33635449,1.14399827,-0.6286366],"rotation":[0.0,0.223802879,0.0,0.9746344],"name":"flashHeadArm1_mesh"},{"mesh":8,"name":"flashHeadKnob1_mesh"},{"mesh":9,"name":"lightStand1_baseMetal_mesh"},{"mesh":10,"name":"lightStand1_basePlastic_mesh"},{"children":[15,24,25],"translation":[0.0,-0.00647752,0.0],"name":"light2_group"},{"children":[16],"mesh":11,"name":"lightStand2_tube1_mesh"},{"children":[17],"mesh":12,"name":"lightStand2_tube2_mesh"},{"children":[18,22,23],"name":"light2_rotationAlpha"},{"children":[19,20,21],"name":"light2_rotationBeta"},{"mesh":13,"name":"flashHead2_mesh"},{"mesh":14,"name":"umbrellaRod2_mesh"},{"mesh":15,"name":"umbrellaReflector2_mesh"},{"mesh":16,"translation":[-0.5532827,0.980830848,-0.8584284],"rotation":[0.0,0.8861158,0.0,0.463463932],"name":"flashHeadArm2_mesh"},{"mesh":17,"name":"flashHeadKnob2_mesh"},{"mesh":18,"name":"lightStand2_baseMetal_mesh"},{"mesh":19,"name":"lightStand2_basePlastic_mesh"},{"children":[27,30,31],"translation":[0.0,-0.00647752,0.0],"name":"light3_group"},{"children":[28],"mesh":20,"name":"lightStand3_tube1_mesh"},{"children":[29],"mesh":21,"name":"lightStand3_tube2_mesh"},{"mesh":22,"name":"lightHead3_mesh"},{"mesh":23,"name":"lightStand3_baseMetal_mesh"},{"mesh":24,"name":"lightStand3_basePlastic_mesh"},{"name":"Default light"}],"meshes":[{"primitives":[{"attributes":{"POSITION":1,"TANGENT":2,"NORMAL":3,"TEXCOORD_0":4},"indices":0,"material":0}],"name":"TableSurfaceMesh"},{"primitives":[{"attributes":{"POSITION":6,"TANGENT":7,"NORMAL":8,"TEXCOORD_0":9},"indices":5,"material":1}],"name":"Studio"},{"primitives":[{"attributes":{"POSITION":11,"TANGENT":12,"NORMAL":13,"TEXCOORD_0":14},"indices":10,"material":2}],"name":"lightStand1_tube1_mesh"},{"primitives":[{"attributes":{"POSITION":16,"TANGENT":17,"NORMAL":18,"TEXCOORD_0":19},"indices":15,"material":2}],"name":"lightStand1_tube2_mesh"},{"primitives":[{"attributes":{"POSITION":21,"TANGENT":22,"NORMAL":23,"TEXCOORD_0":24},"indices":20,"material":2}],"name":"flashHead1_mesh"},{"primitives":[{"attributes":{"POSITION":26,"TANGENT":27,"NORMAL":28,"TEXCOORD_0":29},"indices":25,"material":3}],"name":"umbrellaRod1_mesh"},{"primitives":[{"attributes":{"POSITION":31,"TANGENT":32,"NORMAL":33,"TEXCOORD_0":34},"indices":30,"material":4}],"name":"umbrellaReflector1_mesh"},{"primitives":[{"attributes":{"POSITION":36,"TANGENT":37,"NORMAL":38,"TEXCOORD_0":39},"indices":35,"material":2}],"name":"flashHeadArm1_mesh"},{"primitives":[{"attributes":{"POSITION":41,"TANGENT":42,"NORMAL":43,"TEXCOORD_0":44},"indices":40,"material":5}],"name":"flashHeadKnob1_mesh"},{"primitives":[{"attributes":{"POSITION":46,"TANGENT":47,"NORMAL":48,"TEXCOORD_0":49},"indices":45,"material":2}],"name":"lightStand1_baseMetal_mesh"},{"primitives":[{"attributes":{"POSITION":51,"TANGENT":52,"NORMAL":53,"TEXCOORD_0":54},"indices":50,"material":5}],"name":"lightStand1_basePlastic_mesh"},{"primitives":[{"attributes":{"POSITION":56,"TANGENT":57,"NORMAL":58,"TEXCOORD_0":59},"indices":55,"material":2}],"name":"lightStand2_tube1_mesh"},{"primitives":[{"attributes":{"POSITION":61,"TANGENT":62,"NORMAL":63,"TEXCOORD_0":64},"indices":60,"material":2}],"name":"lightStand2_tube2_mesh"},{"primitives":[{"attributes":{"POSITION":66,"TANGENT":67,"NORMAL":68,"TEXCOORD_0":69},"indices":65,"material":2}],"name":"flashHead2_mesh"},{"primitives":[{"attributes":{"POSITION":71,"TANGENT":72,"NORMAL":73,"TEXCOORD_0":74},"indices":70,"material":3}],"name":"umbrellaRod2_mesh"},{"primitives":[{"attributes":{"POSITION":76,"TANGENT":77,"NORMAL":78,"TEXCOORD_0":79},"indices":75,"material":4}],"name":"umbrellaReflector2_mesh"},{"primitives":[{"attributes":{"POSITION":81,"TANGENT":82,"NORMAL":83,"TEXCOORD_0":84},"indices":80,"material":2}],"name":"flashHeadArm2_mesh"},{"primitives":[{"attributes":{"POSITION":86,"TANGENT":87,"NORMAL":88,"TEXCOORD_0":89},"indices":85,"material":5}],"name":"flashHeadKnob2_mesh"},{"primitives":[{"attributes":{"POSITION":91,"TANGENT":92,"NORMAL":93,"TEXCOORD_0":94},"indices":90,"material":2}],"name":"lightStand2_baseMetal_mesh"},{"primitives":[{"attributes":{"POSITION":96,"TANGENT":97,"NORMAL":98,"TEXCOORD_0":99},"indices":95,"material":5}],"name":"lightStand2_basePlastic_mesh"},{"primitives":[{"attributes":{"POSITION":101,"TANGENT":102,"NORMAL":103,"TEXCOORD_0":104},"indices":100,"material":2}],"name":"lightStand3_tube1_mesh"},{"primitives":[{"attributes":{"POSITION":106,"TANGENT":107,"NORMAL":108,"TEXCOORD_0":109},"indices":105,"material":2}],"name":"lightStand3_tube2_mesh"},{"primitives":[{"attributes":{"POSITION":111,"TANGENT":112,"NORMAL":113,"TEXCOORD_0":114},"indices":110,"material":4}],"name":"lightHead3_mesh"},{"primitives":[{"attributes":{"POSITION":116,"TANGENT":117,"NORMAL":118,"TEXCOORD_0":119},"indices":115,"material":2}],"name":"lightStand3_baseMetal_mesh"},{"primitives":[{"attributes":{"POSITION":121,"TANGENT":122,"NORMAL":123,"TEXCOORD_0":124},"indices":120,"material":5}],"name":"lightStand3_basePlastic_mesh"}],"accessors":[{"bufferView":0,"componentType":5123,"count":2160,"type":"SCALAR","name":"accessorIndices"},{"bufferView":1,"componentType":5126,"count":516,"max":[0.5257614,0.5257614,0.5257616],"min":[-0.525761843,0.0,-0.525762],"type":"VEC3","name":"accessorPositions"},{"bufferView":2,"componentType":5126,"count":516,"type":"VEC4","name":"accessorTangents"},{"bufferView":1,"byteOffset":6192,"componentType":5126,"count":516,"type":"VEC3","name":"accessorNormals"},{"bufferView":3,"componentType":5126,"count":516,"type":"VEC2","name":"accessorUVs"},{"bufferView":0,"byteOffset":4320,"componentType":5123,"count":324,"type":"SCALAR","name":"accessorIndices"},{"bufferView":1,"byteOffset":12384,"componentType":5126,"count":96,"max":[3.943211,2.1030457,2.62880731],"min":[-3.943211,0.0,-2.62880731],"type":"VEC3","name":"accessorPositions"},{"bufferView":2,"byteOffset":8256,"componentType":5126,"count":96,"type":"VEC4","name":"accessorTangents"},{"bufferView":1,"byteOffset":13536,"componentType":5126,"count":96,"type":"VEC3","name":"accessorNormals"},{"bufferView":3,"byteOffset":4128,"componentType":5126,"count":96,"type":"VEC2","name":"accessorUVs"},{"bufferView":0,"byteOffset":4968,"componentType":5123,"count":240,"type":"SCALAR","name":"accessorIndices"},{"bufferView":1,"byteOffset":14688,"componentType":5126,"count":84,"max":[1.33702743,0.9309894,-0.635922],"min":[1.32140422,0.40522787,-0.651545346],"type":"VEC3","name":"accessorPositions"},{"bufferView":2,"byteOffset":9792,"componentType":5126,"count":84,"type":"VEC4","name":"accessorTangents"},{"bufferView":1,"byteOffset":15696,"componentType":5126,"count":84,"type":"VEC3","name":"accessorNormals"},{"bufferView":3,"byteOffset":4896,"componentType":5126,"count":84,"type":"VEC2","name":"accessorUVs"},{"bufferView":0,"byteOffset":5448,"componentType":5123,"count":240,"type":"SCALAR","name":"accessorIndices"},{"bufferView":1,"byteOffset":16704,"componentType":5126,"count":84,"max":[1.3344233,1.15679049,-0.638525844],"min":[1.324008,0.631029069,-0.6489414],"type":"VEC3","name":"accessorPositions"},{"bufferView":2,"byteOffset":11136,"componentType":5126,"count":84,"type":"VEC4","name":"accessorTangents"},{"bufferView":1,"byteOffset":17712,"componentType":5126,"count":84,"type":"VEC3","name":"accessorNormals"},{"bufferView":3,"byteOffset":5568,"componentType":5126,"count":84,"type":"VEC2","name":"accessorUVs"},{"bufferView":0,"byteOffset":5928,"componentType":5123,"count":13428,"type":"SCALAR","name":"accessorIndices"},{"bufferView":1,"byteOffset":18720,"componentType":5126,"count":2431,"max":[1.441032,1.33048439,-0.590757251],"min":[1.26800454,1.17059135,-0.734905],"type":"VEC3","name":"accessorPositions"},{"bufferView":2,"byteOffset":12480,"componentType":5126,"count":2431,"type":"VEC4","name":"accessorTangents"},{"bufferView":1,"byteOffset":47892,"componentType":5126,"count":2431,"type":"VEC3","name":"accessorNormals"},{"bufferView":3,"byteOffset":6240,"componentType":5126,"count":2431,"type":"VEC2","name":"accessorUVs"},{"bufferView":0,"byteOffset":32784,"componentType":5123,"count":240,"type":"SCALAR","name":"accessorIndices"},{"bufferView":1,"byteOffset":77064,"componentType":5126,"count":84,"max":[1.762186,1.50785291,-0.6396959],"min":[1.31684768,1.14629543,-0.8604498],"type":"VEC3","name":"accessorPositions"},{"bufferView":2,"byteOffset":51376,"componentType":5126,"count":84,"type":"VEC4","name":"accessorTangents"},{"bufferView":1,"byteOffset":78072,"componentType":5126,"count":84,"type":"VEC3","name":"accessorNormals"},{"bufferView":3,"byteOffset":25688,"componentType":5126,"count":84,"type":"VEC2","name":"accessorUVs"},{"bufferView":0,"byteOffset":33264,"componentType":5123,"count":2736,"type":"SCALAR","name":"accessorIndices"},{"bufferView":1,"byteOffset":79080,"componentType":5126,"count":568,"max":[1.89501512,1.72780573,-0.282628447],"min":[1.17259669,0.8995172,-1.19879138],"type":"VEC3","name":"accessorPositions"},{"bufferView":2,"byteOffset":52720,"componentType":5126,"count":568,"type":"VEC4","name":"accessorTangents"},{"bufferView":1,"byteOffset":85896,"componentType":5126,"count":568,"type":"VEC3","name":"accessorNormals"},{"bufferView":3,"byteOffset":26360,"componentType":5126,"count":568,"type":"VEC2","name":"accessorUVs"},{"bufferView":0,"byteOffset":38736,"componentType":5123,"count":1854,"type":"SCALAR","name":"accessorIndices"},{"bufferView":1,"byteOffset":92712,"componentType":5126,"count":393,"max":[0.0075,0.09271945,0.03086],"min":[-0.0075,0.0,-0.03131],"type":"VEC3","name":"accessorPositions"},{"bufferView":2,"byteOffset":61808,"componentType":5126,"count":393,"type":"VEC4","name":"accessorTangents"},{"bufferView":1,"byteOffset":97428,"componentType":5126,"count":393,"type":"VEC3","name":"accessorNormals"},{"bufferView":3,"byteOffset":30904,"componentType":5126,"count":393,"type":"VEC2","name":"accessorUVs"},{"bufferView":0,"byteOffset":42444,"componentType":5123,"count":960,"type":"SCALAR","name":"accessorIndices"},{"bufferView":1,"byteOffset":102144,"componentType":5126,"count":286,"max":[1.36181521,1.23575664,-0.5906671],"min":[1.33216488,1.21367,-0.6306764],"type":"VEC3","name":"accessorPositions"},{"bufferView":2,"byteOffset":68096,"componentType":5126,"count":286,"type":"VEC4","name":"accessorTangents"},{"bufferView":1,"byteOffset":105576,"componentType":5126,"count":286,"type":"VEC3","name":"accessorNormals"},{"bufferView":3,"byteOffset":34048,"componentType":5126,"count":286,"type":"VEC2","name":"accessorUVs"},{"bufferView":0,"byteOffset":44364,"componentType":5123,"count":2844,"type":"SCALAR","name":"accessorIndices"},{"bufferView":1,"byteOffset":109008,"componentType":5126,"count":1053,"max":[1.60197175,0.5508131,-0.455870241],"min":[1.03396726,0.006659828,-0.9696051],"type":"VEC3","name":"accessorPositions"},{"bufferView":2,"byteOffset":72672,"componentType":5126,"count":1053,"type":"VEC4","name":"accessorTangents"},{"bufferView":1,"byteOffset":121644,"componentType":5126,"count":1053,"type":"VEC3","name":"accessorNormals"},{"bufferView":3,"byteOffset":36336,"componentType":5126,"count":1053,"type":"VEC2","name":"accessorUVs"},{"bufferView":0,"byteOffset":50052,"componentType":5123,"count":1548,"type":"SCALAR","name":"accessorIndices"},{"bufferView":1,"byteOffset":134280,"componentType":5126,"count":606,"max":[1.35450959,0.20773828,-0.622243345],"min":[1.30341363,0.0234577414,-0.6683263],"type":"VEC3","name":"accessorPositions"},{"bufferView":2,"byteOffset":89520,"componentType":5126,"count":606,"type":"VEC4","name":"accessorTangents"},{"bufferView":1,"byteOffset":141552,"componentType":5126,"count":606,"type":"VEC3","name":"accessorNormals"},{"bufferView":3,"byteOffset":44760,"componentType":5126,"count":606,"type":"VEC2","name":"accessorUVs"},{"bufferView":0,"byteOffset":53148,"componentType":5123,"count":240,"type":"SCALAR","name":"accessorIndices"},{"bufferView":1,"byteOffset":148824,"componentType":5126,"count":84,"max":[-0.5591337,0.767820358,-0.8410207],"min":[-0.574858367,0.2420589,-0.856745362],"type":"VEC3","name":"accessorPositions"},{"bufferView":2,"byteOffset":99216,"componentType":5126,"count":84,"type":"VEC4","name":"accessorTangents"},{"bufferView":1,"byteOffset":149832,"componentType":5126,"count":84,"type":"VEC3","name":"accessorNormals"},{"bufferView":3,"byteOffset":49608,"componentType":5126,"count":84,"type":"VEC2","name":"accessorUVs"},{"bufferView":0,"byteOffset":53628,"componentType":5123,"count":240,"type":"SCALAR","name":"accessorIndices"},{"bufferView":1,"byteOffset":150840,"componentType":5126,"count":84,"max":[-0.5617545,0.9936215,-0.8436414],"min":[-0.5722376,0.467860073,-0.8541245],"type":"VEC3","name":"accessorPositions"},{"bufferView":2,"byteOffset":100560,"componentType":5126,"count":84,"type":"VEC4","name":"accessorTangents"},{"bufferView":1,"byteOffset":151848,"componentType":5126,"count":84,"type":"VEC3","name":"accessorNormals"},{"bufferView":3,"byteOffset":50280,"componentType":5126,"count":84,"type":"VEC2","name":"accessorUVs"},{"bufferView":0,"byteOffset":54108,"componentType":5123,"count":13428,"type":"SCALAR","name":"accessorIndices"},{"bufferView":1,"byteOffset":152856,"componentType":5126,"count":2431,"max":[-0.5105741,1.1639061,-0.7863152],"min":[-0.6684476,1.00835407,-0.9581624],"type":"VEC3","name":"accessorPositions"},{"bufferView":2,"byteOffset":101904,"componentType":5126,"count":2431,"type":"VEC4","name":"accessorTangents"},{"bufferView":1,"byteOffset":182028,"componentType":5126,"count":2431,"type":"VEC3","name":"accessorNormals"},{"bufferView":3,"byteOffset":50952,"componentType":5126,"count":2431,"type":"VEC2","name":"accessorUVs"},{"bufferView":0,"byteOffset":80964,"componentType":5123,"count":240,"type":"SCALAR","name":"accessorIndices"},{"bufferView":1,"byteOffset":211200,"componentType":5126,"count":84,"max":[-0.558997154,1.315323,-0.832877636],"min":[-0.8597661,0.9836543,-1.25475788],"type":"VEC3","name":"accessorPositions"},{"bufferView":2,"byteOffset":140800,"componentType":5126,"count":84,"type":"VEC4","name":"accessorTangents"},{"bufferView":1,"byteOffset":212208,"componentType":5126,"count":84,"type":"VEC3","name":"accessorNormals"},{"bufferView":3,"byteOffset":70400,"componentType":5126,"count":84,"type":"VEC2","name":"accessorUVs"},{"bufferView":0,"byteOffset":81444,"componentType":5123,"count":2736,"type":"SCALAR","name":"accessorIndices"},{"bufferView":1,"byteOffset":213216,"componentType":5126,"count":568,"max":[-0.2805986,1.56562316,-0.659624934],"min":[-1.1129235,0.7059596,-1.41041231],"type":"VEC3","name":"accessorPositions"},{"bufferView":2,"byteOffset":142144,"componentType":5126,"count":568,"type":"VEC4","name":"accessorTangents"},{"bufferView":1,"byteOffset":220032,"componentType":5126,"count":568,"type":"VEC3","name":"accessorNormals"},{"bufferView":3,"byteOffset":71072,"componentType":5126,"count":568,"type":"VEC2","name":"accessorUVs"},{"bufferView":0,"byteOffset":86916,"componentType":5123,"count":1854,"type":"SCALAR","name":"accessorIndices"},{"bufferView":1,"byteOffset":226848,"componentType":5126,"count":393,"max":[0.0075,0.09271945,0.03086],"min":[-0.0075,0.0,-0.03131],"type":"VEC3","name":"accessorPositions"},{"bufferView":2,"byteOffset":151232,"componentType":5126,"count":393,"type":"VEC4","name":"accessorTangents"},{"bufferView":1,"byteOffset":231564,"componentType":5126,"count":393,"type":"VEC3","name":"accessorNormals"},{"bufferView":3,"byteOffset":75616,"componentType":5126,"count":393,"type":"VEC2","name":"accessorUVs"},{"bufferView":0,"byteOffset":90624,"componentType":5123,"count":960,"type":"SCALAR","name":"accessorIndices"},{"bufferView":1,"byteOffset":236280,"componentType":5126,"count":286,"max":[-0.516894758,1.07258761,-0.8545146],"min":[-0.5558297,1.05050111,-0.888086855],"type":"VEC3","name":"accessorPositions"},{"bufferView":2,"byteOffset":157520,"componentType":5126,"count":286,"type":"VEC4","name":"accessorTangents"},{"bufferView":1,"byteOffset":239712,"componentType":5126,"count":286,"type":"VEC3","name":"accessorNormals"},{"bufferView":3,"byteOffset":78760,"componentType":5126,"count":286,"type":"VEC2","name":"accessorUVs"},{"bufferView":0,"byteOffset":92544,"componentType":5123,"count":2844,"type":"SCALAR","name":"accessorIndices"},{"bufferView":1,"byteOffset":243144,"componentType":5126,"count":1053,"max":[-0.377401382,0.5508131,-0.5772961],"min":[-0.8927069,0.006659828,-1.14503312],"type":"VEC3","name":"accessorPositions"},{"bufferView":2,"byteOffset":162096,"componentType":5126,"count":1053,"type":"VEC4","name":"accessorTangents"},{"bufferView":1,"byteOffset":255780,"componentType":5126,"count":1053,"type":"VEC3","name":"accessorNormals"},{"bufferView":3,"byteOffset":81048,"componentType":5126,"count":1053,"type":"VEC2","name":"accessorUVs"},{"bufferView":0,"byteOffset":98232,"componentType":5123,"count":1548,"type":"SCALAR","name":"accessorIndices"},{"bufferView":1,"byteOffset":268416,"componentType":5126,"count":606,"max":[-0.5454116,0.20773828,-0.8236251],"min":[-0.5916408,0.0234577414,-0.8746958],"type":"VEC3","name":"accessorPositions"},{"bufferView":2,"byteOffset":178944,"componentType":5126,"count":606,"type":"VEC4","name":"accessorTangents"},{"bufferView":1,"byteOffset":275688,"componentType":5126,"count":606,"type":"VEC3","name":"accessorNormals"},{"bufferView":3,"byteOffset":89472,"componentType":5126,"count":606,"type":"VEC2","name":"accessorUVs"},{"bufferView":0,"byteOffset":101328,"componentType":5123,"count":240,"type":"SCALAR","name":"accessorIndices"},{"bufferView":1,"byteOffset":282960,"componentType":5126,"count":84,"max":[-0.498326182,0.9309894,1.33173251],"min":[-0.5140985,0.40522787,1.31595993],"type":"VEC3","name":"accessorPositions"},{"bufferView":2,"byteOffset":188640,"componentType":5126,"count":84,"type":"VEC4","name":"accessorTangents"},{"bufferView":1,"byteOffset":283968,"componentType":5126,"count":84,"type":"VEC3","name":"accessorNormals"},{"bufferView":3,"byteOffset":94320,"componentType":5126,"count":84,"type":"VEC2","name":"accessorUVs"},{"bufferView":0,"byteOffset":101808,"componentType":5123,"count":240,"type":"SCALAR","name":"accessorIndices"},{"bufferView":1,"byteOffset":284976,"componentType":5126,"count":84,"max":[-0.500955,1.15679049,1.32910371],"min":[-0.5114698,0.631029069,1.318589],"type":"VEC3","name":"accessorPositions"},{"bufferView":2,"byteOffset":189984,"componentType":5126,"count":84,"type":"VEC4","name":"accessorTangents"},{"bufferView":1,"byteOffset":285984,"componentType":5126,"count":84,"type":"VEC3","name":"accessorNormals"},{"bufferView":3,"byteOffset":94992,"componentType":5126,"count":84,"type":"VEC2","name":"accessorUVs"},{"bufferView":0,"byteOffset":102288,"componentType":5123,"count":6,"type":"SCALAR","name":"accessorIndices"},{"bufferView":1,"byteOffset":286992,"componentType":5126,"count":4,"max":[0.08851492,1.4589076,1.41703248],"min":[-0.948078454,0.55209893,0.6937183],"type":"VEC3","name":"accessorPositions"},{"bufferView":2,"byteOffset":191328,"componentType":5126,"count":4,"type":"VEC4","name":"accessorTangents"},{"bufferView":1,"byteOffset":287040,"componentType":5126,"count":4,"type":"VEC3","name":"accessorNormals"},{"bufferView":3,"byteOffset":95664,"componentType":5126,"count":4,"type":"VEC2","name":"accessorUVs"},{"bufferView":0,"byteOffset":102300,"componentType":5123,"count":2844,"type":"SCALAR","name":"accessorIndices"},{"bufferView":1,"byteOffset":287088,"componentType":5126,"count":1053,"max":[-0.2621248,0.5508131,1.64318168],"min":[-0.818432,0.006659828,1.09954524],"type":"VEC3","name":"accessorPositions"},{"bufferView":2,"byteOffset":191392,"componentType":5126,"count":1053,"type":"VEC4","name":"accessorTangents"},{"bufferView":1,"byteOffset":299724,"componentType":5126,"count":1053,"type":"VEC3","name":"accessorNormals"},{"bufferView":3,"byteOffset":95696,"componentType":5126,"count":1053,"type":"VEC2","name":"accessorUVs"},{"bufferView":0,"byteOffset":107988,"componentType":5123,"count":1548,"type":"SCALAR","name":"accessorIndices"},{"bufferView":1,"byteOffset":312360,"componentType":5126,"count":606,"max":[-0.48197037,0.20773828,1.34934032],"min":[-0.531988561,0.0234577414,1.30049109],"type":"VEC3","name":"accessorPositions"},{"bufferView":2,"byteOffset":208240,"componentType":5126,"count":606,"type":"VEC4","name":"accessorTangents"},{"bufferView":1,"byteOffset":319632,"componentType":5126,"count":606,"type":"VEC3","name":"accessorNormals"},{"bufferView":3,"byteOffset":104120,"componentType":5126,"count":606,"type":"VEC2","name":"accessorUVs"}],"bufferViews":[{"buffer":0,"byteLength":111084,"name":"bufferViewScalar"},{"buffer":0,"byteOffset":111084,"byteLength":326904,"byteStride":12,"name":"bufferViewFloatVec3"},{"buffer":0,"byteOffset":437988,"byteLength":217936,"byteStride":16,"name":"bufferViewFloatVec4"},{"buffer":0,"byteOffset":655924,"byteLength":108968,"byteStride":8,"name":"bufferViewFloatVec2"}],"buffers":[{"uri":"studio.bin","byteLength":764892}],"materials":[{"pbrMetallicRoughness":{"baseColorFactor":[0.8,0.8,0.8,1.0],"metallicFactor":0.0,"roughnessFactor":0.253246754},"name":"TableSurfaceMat"},{"pbrMetallicRoughness":{"baseColorTexture":{"index":1},"metallicRoughnessTexture":{"index":2}},"normalTexture":{"index":0},"name":"StudioRoomMat"},{"pbrMetallicRoughness":{"baseColorFactor":[0.0172800012,0.0172800012,0.0172800012,1.0],"metallicFactor":0.0,"roughnessFactor":0.7987013},"name":"BlackMetalMat"},{"pbrMetallicRoughness":{"baseColorFactor":[0.35184,0.35184,0.35184,1.0],"roughnessFactor":0.435064942},"name":"SilverMetalMat"},{"pbrMetallicRoughness":{"baseColorFactor":[0.5,0.5,0.5,1.0],"metallicFactor":0.0,"roughnessFactor":0.450053632},"name":"lambert1"},{"pbrMetallicRoughness":{"baseColorFactor":[0.00528,0.00528,0.00528,1.0],"metallicFactor":0.0,"roughnessFactor":0.961038947},"name":"BlackPlasticMat"}],"textures":[{"sampler":0,"source":0,"name":"StudioRoom_Normal.png"},{"sampler":0,"source":1,"name":"StudioRoom_BaseColor.png"},{"sampler":0,"source":2,"name":"file8file7.jpg"}],"images":[{"uri":"StudioRoom_Normal.png"},{"uri":"StudioRoom_BaseColor.png"},{"uri":"file8file7.jpg"}],"samplers":[{"magFilter":9729,"minFilter":9987}]}