{
  "asset": {
    "generator": "Khronos glTF Blender I/O v1.7.33",
    "version": "2.0"
  },
  "scene": 0,
  "scenes": [
    {
      "name": "Scene",
      "nodes": [
        0
      ]
    }
  ],
  "nodes": [
    {
      "mesh": 0,
      "name": "fenceBSection4"
    }
  ],
  "materials": [
    {
      "name": "fenceBSection4",
      "pbrMetallicRoughness": {
        "baseColorTexture": {
          "index": 0
        },
        "metallicFactor": 0,
        "roughnessFactor": 0.800000011920929
      }
    }
  ],
  "meshes": [
    {
      "name": "fenceBSection4",
      "primitives": [
        {
          "attributes": {
            "POSITION": 0,
            "NORMAL": 1,
            "TEXCOORD_0": 2
          },
          "indices": 3,
          "material": 0
        }
      ]
    }
  ],
  "textures": [
    {
      "sampler": 0,
      "source": 0
    }
  ],
  "images": [
    {
      "name": "Graveyard_texture",
      "uri": "fenceBSection4_image0.png"
    }
  ],
  "accessors": [
    {
      "bufferView": 0,
      "componentType": 5126,
      "count": 504,
      "max": [
        1,
        1.9082818031311035,
        0.052763938903808594
      ],
      "min": [
        -1,
        -0.15765535831451416,
        -0.10404419898986816
      ],
      "type": "VEC3"
    },
    {
      "bufferView": 1,
      "componentType": 5126,
      "count": 504,
      "type": "VEC3"
    },
    {
      "bufferView": 2,
      "componentType": 5126,
      "count": 504,
      "type": "VEC2"
    },
    {
      "bufferView": 3,
      "componentType": 5123,
      "count": 768,
      "type": "SCALAR"
    }
  ],
  "bufferViews": [
    {
      "buffer": 0,
      "byteLength": 6048,
      "byteOffset": 0
    },
    {
      "buffer": 0,
      "byteLength": 6048,
      "byteOffset": 6048
    },
    {
      "buffer": 0,
      "byteLength": 4032,
      "byteOffset": 12096
    },
    {
      "buffer": 0,
      "byteLength": 1536,
      "byteOffset": 16128
    }
  ],
  "samplers": [
    {
      "magFilter": 9729,
      "minFilter": 9987
    }
  ],
  "buffers": [
    {
      "byteLength": 17664,
      "uri": "fenceBSection4.bin"
    }
  ]
}