{
  "asset": {
    "generator": "Khronos glTF Blender I/O v1.7.33",
    "version": "2.0"
  },
  "scene": 0,
  "scenes": [
    {
      "name": "Scene",
      "nodes": [
        0
      ]
    }
  ],
  "nodes": [
    {
      "mesh": 0,
      "name": "stump2"
    }
  ],
  "materials": [
    {
      "name": "stump2",
      "pbrMetallicRoughness": {
        "baseColorTexture": {
          "index": 0
        },
        "metallicFactor": 0,
        "roughnessFactor": 0.800000011920929
      }
    }
  ],
  "meshes": [
    {
      "name": "stump2",
      "primitives": [
        {
          "attributes": {
            "POSITION": 0,
            "NORMAL": 1,
            "TEXCOORD_0": 2
          },
          "indices": 3,
          "material": 0
        }
      ]
    }
  ],
  "textures": [
    {
      "sampler": 0,
      "source": 0
    }
  ],
  "images": [
    {
      "name": "Graveyard_texture",
      "uri": "stump2_image0.png"
    }
  ],
  "accessors": [
    {
      "bufferView": 0,
      "componentType": 5126,
      "count": 962,
      "max": [
        0.94464612007141113,
        0.80047839879989624,
        0.96261346340179443
      ],
      "min": [
        -0.74937540292739868,
        -0.1659608781337738,
        -0.82552903890609741
      ],
      "type": "VEC3"
    },
    {
      "bufferView": 1,
      "componentType": 5126,
      "count": 962,
      "type": "VEC3"
    },
    {
      "bufferView": 2,
      "componentType": 5126,
      "count": 962,
      "type": "VEC2"
    },
    {
      "bufferView": 3,
      "componentType": 5123,
      "count": 1074,
      "type": "SCALAR"
    }
  ],
  "bufferViews": [
    {
      "buffer": 0,
      "byteLength": 11544,
      "byteOffset": 0
    },
    {
      "buffer": 0,
      "byteLength": 11544,
      "byteOffset": 11544
    },
    {
      "buffer": 0,
      "byteLength": 7696,
      "byteOffset": 23088
    },
    {
      "buffer": 0,
      "byteLength": 2148,
      "byteOffset": 30784
    }
  ],
  "samplers": [
    {
      "magFilter": 9729,
      "minFilter": 9987
    }
  ],
  "buffers": [
    {
      "byteLength": 32932,
      "uri": "stump2.bin"
    }
  ]
}