{
  "asset": {
    "generator": "Khronos glTF Blender I/O v1.7.33",
    "version": "2.0"
  },
  "scene": 0,
  "scenes": [
    {
      "name": "Scene",
      "nodes": [
        0
      ]
    }
  ],
  "nodes": [
    {
      "mesh": 0,
      "name": "tombstone10",
      "translation": [
        0,
        0.032025929540395737,
        0
      ]
    }
  ],
  "materials": [
    {
      "name": "tombstone10",
      "pbrMetallicRoughness": {
        "baseColorTexture": {
          "index": 0
        },
        "metallicFactor": 0,
        "roughnessFactor": 0.800000011920929
      }
    }
  ],
  "meshes": [
    {
      "name": "tombstone10",
      "primitives": [
        {
          "attributes": {
            "POSITION": 0,
            "NORMAL": 1,
            "TEXCOORD_0": 2
          },
          "indices": 3,
          "material": 0
        }
      ]
    }
  ],
  "textures": [
    {
      "sampler": 0,
      "source": 0
    }
  ],
  "images": [
    {
      "name": "Graveyard_texture",
      "uri": "tombstone10_image0.png"
    }
  ],
  "accessors": [
    {
      "bufferView": 0,
      "componentType": 5126,
      "count": 124,
      "max": [
        0.43288365006446838,
        0.44927451014518738,
        0.20812088251113892
      ],
      "min": [
        -0.31328290700912476,
        -0.33535581827163696,
        -0.55306029319763184
      ],
      "type": "VEC3"
    },
    {
      "bufferView": 1,
      "componentType": 5126,
      "count": 124,
      "type": "VEC3"
    },
    {
      "bufferView": 2,
      "componentType": 5126,
      "count": 124,
      "type": "VEC2"
    },
    {
      "bufferView": 3,
      "componentType": 5123,
      "count": 240,
      "type": "SCALAR"
    }
  ],
  "bufferViews": [
    {
      "buffer": 0,
      "byteLength": 1488,
      "byteOffset": 0
    },
    {
      "buffer": 0,
      "byteLength": 1488,
      "byteOffset": 1488
    },
    {
      "buffer": 0,
      "byteLength": 992,
      "byteOffset": 2976
    },
    {
      "buffer": 0,
      "byteLength": 480,
      "byteOffset": 3968
    }
  ],
  "samplers": [
    {
      "magFilter": 9729,
      "minFilter": 9987
    }
  ],
  "buffers": [
    {
      "byteLength": 4448,
      "uri": "tombstone10.bin"
    }
  ]
}