{
  "accessors": [
    {
      "bufferView": 0,
      "componentType": 5125,
      "count": 12612,
      "type": "SCALAR"
    },
    {
      "bufferView": 1,
      "componentType": 5126,
      "count": 4031,
      "max": [
        1.0,
        0.930731236934662,
        0.920086145401001
      ],
      "min": [
        -0.999999940395355,
        -0.930731236934662,
        -0.920086145401001
      ],
      "type": "VEC3"
    },
    {
      "bufferView": 2,
      "componentType": 5126,
      "count": 4031,
      "type": "VEC3"
    },
    {
      "bufferView": 3,
      "componentType": 5126,
      "count": 4031,
      "type": "VEC2"
    },
    {
      "bufferView": 4,
      "componentType": 5125,
      "count": 1944,
      "type": "SCALAR"
    },
    {
      "bufferView": 5,
      "componentType": 5126,
      "count": 664,
      "max": [
        0.733619511127472,
        0.228709787130356,
        0.467977970838547
      ],
      "min": [
        0.444484710693359,
        -0.228709861636162,
        0.057561106979847
      ],
      "type": "VEC3"
    },
    {
      "bufferView": 6,
      "componentType": 5126,
      "count": 664,
      "type": "VEC3"
    },
    {
      "bufferView": 7,
      "componentType": 5126,
      "count": 664,
      "type": "VEC2"
    },
    {
      "bufferView": 8,
      "componentType": 5125,
      "count": 1224,
      "type": "SCALAR"
    },
    {
      "bufferView": 9,
      "componentType": 5126,
      "count": 488,
      "max": [
        0.679738700389862,
        0.883214175701141,
        0.835354685783386
      ],
      "min": [
        -0.410165131092072,
        -0.883214175701141,
        -0.755800366401672
      ],
      "type": "VEC3"
    },
    {
      "bufferView": 10,
      "componentType": 5126,
      "count": 488,
      "type": "VEC3"
    },
    {
      "bufferView": 11,
      "componentType": 5126,
      "count": 488,
      "type": "VEC2"
    },
    {
      "bufferView": 12,
      "componentType": 5125,
      "count": 6048,
      "type": "SCALAR"
    },
    {
      "bufferView": 13,
      "componentType": 5126,
      "count": 2448,
      "max": [
        0.858411908149719,
        0.553200304508209,
        0.74797797203064
      ],
      "min": [
        0.282250136137009,
        -0.553200304508209,
        -0.223449781537056
      ],
      "type": "VEC3"
    },
    {
      "bufferView": 14,
      "componentType": 5126,
      "count": 2448,
      "type": "VEC3"
    },
    {
      "bufferView": 15,
      "componentType": 5126,
      "count": 2448,
      "type": "VEC2"
    }
  ],
  "asset": {
    "generator": "Substance Painter 2019.1.0",
    "version": "2.0"
  },
  "bufferViews": [
    {
      "buffer": 0,
      "byteLength": 50448,
      "target": 34963
    },
    {
      "buffer": 0,
      "byteLength": 48372,
      "byteOffset": 50448,
      "target": 34962
    },
    {
      "buffer": 0,
      "byteLength": 48372,
      "byteOffset": 98820,
      "target": 34962
    },
    {
      "buffer": 0,
      "byteLength": 32248,
      "byteOffset": 147192,
      "target": 34962
    },
    {
      "buffer": 0,
      "byteLength": 7776,
      "byteOffset": 179440,
      "target": 34963
    },
    {
      "buffer": 0,
      "byteLength": 7968,
      "byteOffset": 187216,
      "target": 34962
    },
    {
      "buffer": 0,
      "byteLength": 7968,
      "byteOffset": 195184,
      "target": 34962
    },
    {
      "buffer": 0,
      "byteLength": 5312,
      "byteOffset": 203152,
      "target": 34962
    },
    {
      "buffer": 0,
      "byteLength": 4896,
      "byteOffset": 208464,
      "target": 34963
    },
    {
      "buffer": 0,
      "byteLength": 5856,
      "byteOffset": 213360,
      "target": 34962
    },
    {
      "buffer": 0,
      "byteLength": 5856,
      "byteOffset": 219216,
      "target": 34962
    },
    {
      "buffer": 0,
      "byteLength": 3904,
      "byteOffset": 225072,
      "target": 34962
    },
    {
      "buffer": 0,
      "byteLength": 24192,
      "byteOffset": 228976,
      "target": 34963
    },
    {
      "buffer": 0,
      "byteLength": 29376,
      "byteOffset": 253168,
      "target": 34962
    },
    {
      "buffer": 0,
      "byteLength": 29376,
      "byteOffset": 282544,
      "target": 34962
    },
    {
      "buffer": 0,
      "byteLength": 19584,
      "byteOffset": 311920,
      "target": 34962
    }
  ],
  "buffers": [
    {
      "byteLength": 331504,
      "uri": "BabylonShaderBall_Simple.bin"
    }
  ],
  "images": [
    {
      "uri": "ShaderBallMat_baseColor.jpg"
    },
    {
      "uri": "ShaderBallMat_occlusionRoughnessMetallic.jpg"
    },
    {
      "uri": "ShaderBallMat_normal.jpg"
    },
    {
      "uri": "ShaderBallMat_emissive.png"
    }
  ],
  "materials": [
    {
      "alphaMode": "OPAQUE",
      "emissiveFactor": [
        1.0,
        1.0,
        1.0
      ],
      "emissiveTexture": {
        "index": 3
      },
      "name": "ShaderBallMat",
      "normalTexture": {
        "index": 2
      },
      "occlusionTexture": {
        "index": 1
      },
      "pbrMetallicRoughness": {
        "baseColorTexture": {
          "index": 0
        },
        "metallicRoughnessTexture": {
          "index": 1
        }
      }
    }
  ],
  "meshes": [
    {
      "name": "housing_low",
      "primitives": [
        {
          "attributes": {
            "NORMAL": 2,
            "POSITION": 1,
            "TEXCOORD_0": 3
          },
          "indices": 0,
          "material": 0,
          "mode": 4
        }
      ]
    },
    {
      "name": "hub_low",
      "primitives": [
        {
          "attributes": {
            "NORMAL": 6,
            "POSITION": 5,
            "TEXCOORD_0": 7
          },
          "indices": 4,
          "material": 0,
          "mode": 4
        }
      ]
    },
    {
      "name": "supports_low",
      "primitives": [
        {
          "attributes": {
            "NORMAL": 10,
            "POSITION": 9,
            "TEXCOORD_0": 11
          },
          "indices": 8,
          "material": 0,
          "mode": 4
        }
      ]
    },
    {
      "name": "spokes_low",
      "primitives": [
        {
          "attributes": {
            "NORMAL": 14,
            "POSITION": 13,
            "TEXCOORD_0": 15
          },
          "indices": 12,
          "material": 0,
          "mode": 4
        }
      ]
    }
  ],
  "nodes": [
    {
      "children": [
        1,
        3,
        5,
        7
      ],
      "name": "root",
      "scale": [
        5.48593235015869,
        5.48593235015869,
        5.48593235015869
      ],
      "translation": [
        -0.550995349884033,
        0.0,
        0.0495314598083496
      ]
    },
    {
      "children": [
        2
      ],
      "name": "housing_low"
    },
    {
      "mesh": 0,
      "name": "housing_low"
    },
    {
      "children": [
        4
      ],
      "name": "hub_low"
    },
    {
      "mesh": 1,
      "name": "hub_low"
    },
    {
      "children": [
        6
      ],
      "name": "supports_low"
    },
    {
      "mesh": 2,
      "name": "supports_low"
    },
    {
      "children": [
        8
      ],
      "name": "spokes_low"
    },
    {
      "mesh": 3,
      "name": "spokes_low"
    }
  ],
  "samplers": [
    {
      "magFilter": 9729,
      "minFilter": 9985,
      "wrapS": 10497,
      "wrapT": 10497
    }
  ],
  "scene": 0,
  "scenes": [
    {
      "name": "Scene",
      "nodes": [
        0
      ]
    }
  ],
  "textures": [
    {
      "sampler": 0,
      "source": 0
    },
    {
      "sampler": 0,
      "source": 1
    },
    {
      "sampler": 0,
      "source": 2
    },
    {
      "sampler": 0,
      "source": 3
    }
  ]
}