{
  "asset": {
    "generator": "Khronos glTF Blender I/O v1.7.33",
    "version": "2.0"
  },
  "scene": 0,
  "scenes": [
    {
      "name": "Scene",
      "nodes": [
        0
      ]
    }
  ],
  "nodes": [
    {
      "mesh": 0,
      "name": "fenceBSection1"
    }
  ],
  "materials": [
    {
      "name": "fenceBSection1",
      "pbrMetallicRoughness": {
        "baseColorTexture": {
          "index": 0
        },
        "metallicFactor": 0,
        "roughnessFactor": 0.800000011920929
      }
    }
  ],
  "meshes": [
    {
      "name": "fenceBSection1",
      "primitives": [
        {
          "attributes": {
            "POSITION": 0,
            "NORMAL": 1,
            "TEXCOORD_0": 2
          },
          "indices": 3,
          "material": 0
        }
      ]
    }
  ],
  "textures": [
    {
      "sampler": 0,
      "source": 0
    }
  ],
  "images": [
    {
      "name": "Graveyard_texture",
      "uri": "fenceBSection1_image0.png"
    }
  ],
  "accessors": [
    {
      "bufferView": 0,
      "componentType": 5126,
      "count": 424,
      "max": [
        1,
        1.9132962226867676,
        0.052763514220714569
      ],
      "min": [
        -1,
        -0.15765535831451416,
        -0.049370892345905304
      ],
      "type": "VEC3"
    },
    {
      "bufferView": 1,
      "componentType": 5126,
      "count": 424,
      "type": "VEC3"
    },
    {
      "bufferView": 2,
      "componentType": 5126,
      "count": 424,
      "type": "VEC2"
    },
    {
      "bufferView": 3,
      "componentType": 5123,
      "count": 648,
      "type": "SCALAR"
    }
  ],
  "bufferViews": [
    {
      "buffer": 0,
      "byteLength": 5088,
      "byteOffset": 0
    },
    {
      "buffer": 0,
      "byteLength": 5088,
      "byteOffset": 5088
    },
    {
      "buffer": 0,
      "byteLength": 3392,
      "byteOffset": 10176
    },
    {
      "buffer": 0,
      "byteLength": 1296,
      "byteOffset": 13568
    }
  ],
  "samplers": [
    {
      "magFilter": 9729,
      "minFilter": 9987
    }
  ],
  "buffers": [
    {
      "byteLength": 14864,
      "uri": "fenceBSection1.bin"
    }
  ]
}