{
  "asset": {
    "generator": "Khronos glTF Blender I/O v1.7.33",
    "version": "2.0"
  },
  "scene": 0,
  "scenes": [
    {
      "name": "Scene",
      "nodes": [
        0
      ]
    }
  ],
  "nodes": [
    {
      "mesh": 0,
      "name": "crate2"
    }
  ],
  "materials": [
    {
      "doubleSided": true,
      "name": "crate",
      "normalTexture": {
        "index": 0
      },
      "pbrMetallicRoughness": {
        "baseColorTexture": {
          "index": 1
        },
        "metallicRoughnessTexture": {
          "index": 2
        },
        "roughnessFactor": 0.5
      }
    }
  ],
  "meshes": [
    {
      "name": "crate2",
      "primitives": [
        {
          "attributes": {
            "POSITION": 0,
            "NORMAL": 1,
            "TEXCOORD_0": 2,
            "TEXCOORD_1": 3
          },
          "indices": 4,
          "material": 0
        }
      ]
    }
  ],
  "textures": [
    {
      "sampler": 0,
      "source": 0
    },
    {
      "sampler": 0,
      "source": 1
    },
    {
      "sampler": 0,
      "source": 2
    }
  ],
  "images": [
    {
      "name": "normal",
      "uri": "crate2_image0.png"
    },
    {
      "name": "baseColor",
      "uri": "crate2_image1.png"
    },
    {
      "name": "orm",
      "uri": "crate2_image2.png"
    }
  ],
  "accessors": [
    {
      "bufferView": 0,
      "componentType": 5126,
      "count": 388,
      "max": [
        0.44179034233093262,
        0.87856310606002808,
        0.44179034233093262
      ],
      "min": [
        -0.44179034233093262,
        -0.0050175483338534832,
        -0.44179034233093262
      ],
      "type": "VEC3"
    },
    {
      "bufferView": 1,
      "componentType": 5126,
      "count": 388,
      "type": "VEC3"
    },
    {
      "bufferView": 2,
      "componentType": 5126,
      "count": 388,
      "type": "VEC2"
    },
    {
      "bufferView": 3,
      "componentType": 5126,
      "count": 388,
      "type": "VEC2"
    },
    {
      "bufferView": 4,
      "componentType": 5123,
      "count": 420,
      "type": "SCALAR"
    }
  ],
  "bufferViews": [
    {
      "buffer": 0,
      "byteLength": 4656,
      "byteOffset": 0
    },
    {
      "buffer": 0,
      "byteLength": 4656,
      "byteOffset": 4656
    },
    {
      "buffer": 0,
      "byteLength": 3104,
      "byteOffset": 9312
    },
    {
      "buffer": 0,
      "byteLength": 3104,
      "byteOffset": 12416
    },
    {
      "buffer": 0,
      "byteLength": 840,
      "byteOffset": 15520
    }
  ],
  "samplers": [
    {
      "magFilter": 9729,
      "minFilter": 9987
    }
  ],
  "buffers": [
    {
      "byteLength": 16360,
      "uri": "crate2.bin"
    }
  ]
}