{
  "asset": {
    "generator": "Khronos glTF Blender I/O v1.7.33",
    "version": "2.0"
  },
  "scene": 0,
  "scenes": [
    {
      "extras": {
        "vertex_color_master_settings": {}
      },
      "name": "Scene",
      "nodes": [
        0
      ]
    }
  ],
  "nodes": [
    {
      "mesh": 0,
      "name": "tree2"
    }
  ],
  "materials": [
    {
      "doubleSided": true,
      "name": "tree2",
      "pbrMetallicRoughness": {
        "baseColorTexture": {
          "index": 0
        },
        "metallicFactor": 0
      }
    }
  ],
  "meshes": [
    {
      "name": "tree2",
      "primitives": [
        {
          "attributes": {
            "POSITION": 0,
            "NORMAL": 1,
            "TEXCOORD_0": 2
          },
          "indices": 3,
          "material": 0
        }
      ]
    }
  ],
  "textures": [
    {
      "sampler": 0,
      "source": 0
    }
  ],
  "images": [
    {
      "name": "cottage texture",
      "uri": "tree2_image0.png"
    }
  ],
  "accessors": [
    {
      "bufferView": 0,
      "componentType": 5126,
      "count": 920,
      "max": [
        3.9567410945892334,
        8.6604528427124023,
        2.3984177112579346
      ],
      "min": [
        -3.7312233448028564,
        -0.026704661548137665,
        -3.2726998329162598
      ],
      "type": "VEC3"
    },
    {
      "bufferView": 1,
      "componentType": 5126,
      "count": 920,
      "type": "VEC3"
    },
    {
      "bufferView": 2,
      "componentType": 5126,
      "count": 920,
      "type": "VEC2"
    },
    {
      "bufferView": 3,
      "componentType": 5123,
      "count": 1086,
      "type": "SCALAR"
    }
  ],
  "bufferViews": [
    {
      "buffer": 0,
      "byteLength": 11040,
      "byteOffset": 0
    },
    {
      "buffer": 0,
      "byteLength": 11040,
      "byteOffset": 11040
    },
    {
      "buffer": 0,
      "byteLength": 7360,
      "byteOffset": 22080
    },
    {
      "buffer": 0,
      "byteLength": 2172,
      "byteOffset": 29440
    }
  ],
  "samplers": [
    {
      "magFilter": 9729,
      "minFilter": 9987
    }
  ],
  "buffers": [
    {
      "byteLength": 31612,
      "uri": "tree2.bin"
    }
  ]
}