{
  "asset": {
    "generator": "Khronos glTF Blender I/O v1.7.33",
    "version": "2.0"
  },
  "scene": 0,
  "scenes": [
    {
      "extras": {
        "vertex_color_master_settings": {}
      },
      "name": "Scene",
      "nodes": [
        0
      ]
    }
  ],
  "nodes": [
    {
      "mesh": 0,
      "name": "cellarDoor"
    }
  ],
  "materials": [
    {
      "doubleSided": true,
      "name": "cellarDoor",
      "pbrMetallicRoughness": {
        "baseColorTexture": {
          "index": 0
        },
        "metallicFactor": 0
      }
    }
  ],
  "meshes": [
    {
      "name": "cellarDoor",
      "primitives": [
        {
          "attributes": {
            "POSITION": 0,
            "NORMAL": 1,
            "TEXCOORD_0": 2
          },
          "indices": 3,
          "material": 0
        }
      ]
    }
  ],
  "textures": [
    {
      "sampler": 0,
      "source": 0
    }
  ],
  "images": [
    {
      "name": "cottage texture",
      "uri": "cellarDoor_image0.png"
    }
  ],
  "accessors": [
    {
      "bufferView": 0,
      "componentType": 5126,
      "count": 908,
      "max": [
        1.5034208297729492,
        0.92053079605102539,
        1.2570656538009644
      ],
      "min": [
        -1.5000447034835815,
        -1.5621871796156484E-07,
        -1.2668600082397461
      ],
      "type": "VEC3"
    },
    {
      "bufferView": 1,
      "componentType": 5126,
      "count": 908,
      "type": "VEC3"
    },
    {
      "bufferView": 2,
      "componentType": 5126,
      "count": 908,
      "type": "VEC2"
    },
    {
      "bufferView": 3,
      "componentType": 5123,
      "count": 1386,
      "type": "SCALAR"
    }
  ],
  "bufferViews": [
    {
      "buffer": 0,
      "byteLength": 10896,
      "byteOffset": 0
    },
    {
      "buffer": 0,
      "byteLength": 10896,
      "byteOffset": 10896
    },
    {
      "buffer": 0,
      "byteLength": 7264,
      "byteOffset": 21792
    },
    {
      "buffer": 0,
      "byteLength": 2772,
      "byteOffset": 29056
    }
  ],
  "samplers": [
    {
      "magFilter": 9729,
      "minFilter": 9987
    }
  ],
  "buffers": [
    {
      "byteLength": 31828,
      "uri": "cellarDoor.bin"
    }
  ]
}