{
  "asset": {
    "generator": "Khronos glTF Blender I/O v1.7.33",
    "version": "2.0"
  },
  "scene": 0,
  "scenes": [
    {
      "name": "Scene",
      "nodes": [
        0
      ]
    }
  ],
  "nodes": [
    {
      "mesh": 0,
      "name": "tombstone4"
    }
  ],
  "materials": [
    {
      "name": "tombstone4",
      "pbrMetallicRoughness": {
        "baseColorTexture": {
          "index": 0
        },
        "metallicFactor": 0,
        "roughnessFactor": 0.800000011920929
      }
    }
  ],
  "meshes": [
    {
      "name": "tombstone4",
      "primitives": [
        {
          "attributes": {
            "POSITION": 0,
            "NORMAL": 1,
            "TEXCOORD_0": 2
          },
          "indices": 3,
          "material": 0
        }
      ]
    }
  ],
  "textures": [
    {
      "sampler": 0,
      "source": 0
    }
  ],
  "images": [
    {
      "name": "Graveyard_texture",
      "uri": "tombstone4_image0.png"
    }
  ],
  "accessors": [
    {
      "bufferView": 0,
      "componentType": 5126,
      "count": 260,
      "max": [
        0.32681244611740112,
        0.91109657287597656,
        0.21079878509044647
      ],
      "min": [
        -0.32681244611740112,
        -0.067974060773849487,
        -0.21079868078231812
      ],
      "type": "VEC3"
    },
    {
      "bufferView": 1,
      "componentType": 5126,
      "count": 260,
      "type": "VEC3"
    },
    {
      "bufferView": 2,
      "componentType": 5126,
      "count": 260,
      "type": "VEC2"
    },
    {
      "bufferView": 3,
      "componentType": 5123,
      "count": 420,
      "type": "SCALAR"
    }
  ],
  "bufferViews": [
    {
      "buffer": 0,
      "byteLength": 3120,
      "byteOffset": 0
    },
    {
      "buffer": 0,
      "byteLength": 3120,
      "byteOffset": 3120
    },
    {
      "buffer": 0,
      "byteLength": 2080,
      "byteOffset": 6240
    },
    {
      "buffer": 0,
      "byteLength": 840,
      "byteOffset": 8320
    }
  ],
  "samplers": [
    {
      "magFilter": 9729,
      "minFilter": 9987
    }
  ],
  "buffers": [
    {
      "byteLength": 9160,
      "uri": "tombstone4.bin"
    }
  ]
}