{
  "asset": {
    "generator": "Khronos glTF Blender I/O v1.7.33",
    "version": "2.0"
  },
  "scene": 0,
  "scenes": [
    {
      "name": "Scene",
      "nodes": [
        0
      ]
    }
  ],
  "nodes": [
    {
      "mesh": 0,
      "name": "mausoleumLarge"
    }
  ],
  "materials": [
    {
      "name": "mausoleumLarge",
      "pbrMetallicRoughness": {
        "baseColorTexture": {
          "index": 0
        },
        "metallicFactor": 0,
        "roughnessFactor": 0.800000011920929
      }
    }
  ],
  "meshes": [
    {
      "name": "mausoleumLarge",
      "primitives": [
        {
          "attributes": {
            "POSITION": 0,
            "NORMAL": 1,
            "TEXCOORD_0": 2
          },
          "indices": 3,
          "material": 0
        }
      ]
    }
  ],
  "textures": [
    {
      "sampler": 0,
      "source": 0
    }
  ],
  "images": [
    {
      "name": "Graveyard_texture",
      "uri": "mausoleumLarge_image0.png"
    }
  ],
  "accessors": [
    {
      "bufferView": 0,
      "componentType": 5126,
      "count": 7694,
      "max": [
        3.6583647727966309,
        6.5724706649780273,
        4.9143028259277344
      ],
      "min": [
        -3.6583647727966309,
        -0.46797490119934082,
        -4.3053936958312988
      ],
      "type": "VEC3"
    },
    {
      "bufferView": 1,
      "componentType": 5126,
      "count": 7694,
      "type": "VEC3"
    },
    {
      "bufferView": 2,
      "componentType": 5126,
      "count": 7694,
      "type": "VEC2"
    },
    {
      "bufferView": 3,
      "componentType": 5123,
      "count": 12306,
      "type": "SCALAR"
    }
  ],
  "bufferViews": [
    {
      "buffer": 0,
      "byteLength": 92328,
      "byteOffset": 0
    },
    {
      "buffer": 0,
      "byteLength": 92328,
      "byteOffset": 92328
    },
    {
      "buffer": 0,
      "byteLength": 61552,
      "byteOffset": 184656
    },
    {
      "buffer": 0,
      "byteLength": 24612,
      "byteOffset": 246208
    }
  ],
  "samplers": [
    {
      "magFilter": 9729,
      "minFilter": 9987
    }
  ],
  "buffers": [
    {
      "byteLength": 270820,
      "uri": "mausoleumLarge.bin"
    }
  ]
}